<svg xmlns="http://www.w3.org/2000/svg" viewBox="0 0 256 256">
  <defs><linearGradient id="bg" x1="0" y1="0" x2="1" y2="1"><stop offset="0" stop-color="#2b56f5"/><stop offset="1" stop-color="#1b34c8"/></linearGradient></defs>
  <rect width="256" height="256" rx="60" fill="url(#bg)"/>
  <path d="M 52 176 Q 128 208 204 168" fill="none" stroke="#5BDF9C" stroke-width="16" stroke-linecap="round"/>
  <g transform="translate(74 164) scale(1.75)"><path d="M28 1.60Q18.60 1.60 10.65-0.40Q2.70-2.40-2.30-5.50L6.80-22.90Q12.70-19.50 18.65-17.95Q24.60-16.40 30.40-16.40Q35-16.40 37.35-17.50Q39.70-18.60 39.70-20.50Q39.70-22.40 37.30-23.45Q34.90-24.50 31.10-25.40Q27.30-26.30 23.05-27.55Q18.80-28.80 15-30.85Q11.20-32.90 8.80-36.40Q6.40-39.90 6.40-45.30Q6.40-53.30 10.65-59.20Q14.90-65.10 22.85-68.35Q30.80-71.60 41.80-71.60Q49.60-71.60 56.35-70.05Q63.10-68.50 68-65.60L59.50-48.40Q55.30-51 50.35-52.30Q45.40-53.60 40.30-53.60Q35.10-53.60 32.55-52.15Q30-50.70 30-48.90Q30-47 32.40-45.90Q34.80-44.80 38.60-43.95Q42.40-43.10 46.70-41.90Q51-40.70 54.80-38.70Q58.60-36.70 61-33.30Q63.40-29.90 63.40-24.50Q63.40-16.70 59.10-10.85Q54.80-5 46.85-1.70Q38.90 1.60 28 1.60" fill="#ffffff"/></g>
</svg>